<svg width="1541" height="613" viewBox="0 0 1541 613" fill="none" xmlns="http://www.w3.org/2000/svg">
<path d="M195.375 5.625L199.5 5.5C200.333 5.91667 200.958 6.95833 201.375 8.625L197.625 16V15.875L189.5 31.5C177.25 54.1667 169.333 69.2917 165.75 76.875L161.5 85C156.917 93.8333 149.125 109.417 138.125 131.75C137.958 134.583 137.875 138.833 137.875 144.5V196.125C137.458 197.458 136.625 198.125 135.375 198.125L63.75 198.625C61.9167 196.292 61 193.625 61 190.625L61.25 175V171.375L61.375 167.625L61.5 158.5C61.5 141.083 57.0417 122.417 48.125 102.5C46.2083 98.3333 43.4167 92.4583 39.75 84.875L21.125 47.625C20.625 46.7083 19.2917 44.1667 17.125 40C14.9583 35.8333 12.5833 31.3333 10 26.5V26.625C3.33333 16.4583 0 9.70833 0 6.375C0 5.95833 1.33333 5.75 4 5.75H36.125C53.875 5.75 67.25 5.875 76.25 6.125C78.9167 6.625 85.875 26.6667 97.125 66.25L102.75 86.125C111.25 63.4583 120.208 36.875 129.625 6.375C129.708 5.70833 135.875 5.375 148.125 5.375H164.125C167.958 5.375 171.167 5.45833 173.75 5.625H195.375ZM261.375 99C261.375 99.0833 261.333 99.2917 261.25 99.625V100C260.917 103.5 260.75 107.417 260.75 111.75C260.75 116.083 261.083 120.667 261.75 125.5C262.5 130.333 263.667 135.167 265.25 140C266.917 144.833 269.458 148.75 272.875 151.75C276.542 154.917 280.625 156.5 285.125 156.5C289.708 156.5 293.542 155.875 296.625 154.625C299.792 153.292 302.417 151.625 304.5 149.625C306.667 147.625 308.542 144.917 310.125 141.5C314.125 132.417 316.125 118.333 316.125 99.25C316.125 79.8333 313.875 66.25 309.375 58.5C304.958 50.6667 298.25 46.75 289.25 46.75C284.75 46.75 280.792 47.8333 277.375 50C274.042 52.1667 271.5 54.4167 269.75 56.75C268.083 59.0833 266.333 64.0417 264.5 71.625C262.75 79.2083 261.875 86.2083 261.875 92.625L261.375 99ZM189.5 100L189.75 97.25C190.75 86.8333 192.083 77.625 193.75 69.625C195.417 61.5417 198.125 54 201.875 47C210.792 31.5833 223.208 19.9167 239.125 12C255.125 4 272.333 0 290.75 0C309.25 0 326.042 3.70833 341.125 11.125C350.125 15.5417 357.167 21.125 362.25 27.875C372 40.0417 378.417 51.25 381.5 61.5C384.583 71.75 386.125 83.5833 386.125 97C386.125 126.833 379.958 149.583 367.625 165.25L361.875 172.875C354.125 181.875 343.167 188.833 329 193.75C314.833 198.583 300.792 201.083 286.875 201.25C263.042 201.25 243.5 196.25 228.25 186.25C202.417 169.5 189.5 140.75 189.5 100ZM584.125 97.125L583.75 132.25C583.75 143 582 152.5 578.5 160.75C575.083 169 570.542 175.667 564.875 180.75C549.458 194.75 526.667 201.75 496.5 201.75C466.333 201.75 442.875 194.417 426.125 179.75C420.208 174.667 415.208 168.083 411.125 160C407.125 151.833 404.708 142.625 403.875 132.375C404.292 97.5417 404.5 65.3333 404.5 35.75C404.083 35.75 403.875 31.375 403.875 22.625C403.875 13.875 404.25 8.45833 405 6.375H407.625C419.875 5.70833 436.583 5.375 457.75 5.375C459.25 5.70833 461.958 5.91667 465.875 6C469.875 6.08333 472.625 6.20833 474.125 6.375L478 6.875C478.583 23.375 478.958 46.0833 479.125 75L478.375 125.25C478.375 141.917 483.208 150.25 492.875 150.25C496.958 150.25 500.375 148.458 503.125 144.875C505.958 141.292 507.458 137.25 507.625 132.75L508.125 131.5L508.5 89.375L508.625 85.625C508.625 66.2917 508.375 47.625 507.875 29.625L507.625 20.5C507.458 16.8333 507.375 13.5417 507.375 10.625C507.375 7.70833 507.833 5.70833 508.75 4.625C540.917 4.625 565.167 4.75 581.5 5C582.083 5.58333 582.833 6.125 583.75 6.625H583.625L585 7.5C584.333 23.25 584 43.5 584 68.25V89.75L584.125 97.125ZM643.875 3L659.75 2.75C672.5 2.75 678.875 3.20833 678.875 4.125C678.708 4.45833 678.625 4.91667 678.625 5.5C677.458 8.33333 676 12.375 674.25 17.625C672.5 22.875 671.375 26.2083 670.875 27.625L667.25 37.75C661.167 56 656.042 70.3333 651.875 80.75C648.375 83.5 640 84.875 626.75 84.875H615.375L613.75 85H605.25C601.417 85 599.167 84.6667 598.5 84L597.25 82.25C597.417 81.4167 597.708 80.25 598.125 78.75C598.542 77.1667 598.833 75.9583 599 75.125L603.75 57.625C603.417 57.5417 602.667 57.25 601.5 56.75C611.917 29.6667 617.792 11.7917 619.125 3.125C620.125 3.04167 621.458 3 623.125 3H643.875ZM653.25 79.5L651.125 83L651.875 80.75C652.542 80.25 653 79.8333 653.25 79.5ZM653.5 79.125L653.25 79.5L653.5 79.125ZM753.5 6L793.625 5.625C802.125 5.625 809.833 5.79167 816.75 6.125C835.333 6.625 849.458 11 859.125 19.25C868.875 27.5 873.75 39.125 873.75 54.125C873.75 64.5417 870.708 73.4583 864.625 80.875C858.542 88.2083 849.667 94.6667 838 100.25C856.5 106.083 867.708 120.25 871.625 142.75C872.542 147.667 873.25 153.292 873.75 159.625C874.333 165.958 874.792 170.208 875.125 172.375L876.375 178.75C877.708 186.25 878.875 191.667 879.875 195L879.375 195.375C865.208 196.292 852.25 196.75 840.5 196.75C828.833 196.75 818.5 196.542 809.5 196.125H808.75C806.167 196.125 803.417 183.833 800.5 159.25L799.875 153.875C799.542 144.708 797.917 138.542 795 135.375C792.167 132.208 787.208 130.625 780.125 130.625L778.5 130.75H771.875V168.75L772 172.75V195.625C771.75 196.458 771.125 196.958 770.125 197.125C760.958 197.458 748 197.625 731.25 197.625C714.583 197.625 703.583 197.667 698.25 197.75L697.5 197.5L697.25 197.625C697.083 197.625 696.833 197.5 696.5 197.25L696.75 186L696.625 182.25L697.125 130.375V121.25L697.25 111.875L697.375 79.5L697.5 75.25L697.125 46.875C697.125 46.875 697.292 33.5833 697.625 7C697.625 6.33333 700 6 704.75 6L712.75 6.125H720.375L736.25 6.25L753.5 6ZM880.625 194.625L880 195V194.75C880 194.667 880.208 194.625 880.625 194.625ZM880 195V195.125C879.917 195.125 879.875 195.083 879.875 195H880ZM799.75 46.75C794.75 44.5833 788.083 43.5 779.75 43.5H772.5C771.583 44.8333 771.125 51.875 771.125 64.625C771.125 77.2917 771.333 85.7917 771.75 90.125C797.833 89.5417 810.875 80.5417 810.875 63.125C810.875 55.7083 807.167 50.25 799.75 46.75ZM893.125 39.25L892.5 6.375C892.583 6.375 892.875 6.5 893.375 6.75C956.708 5.66667 1004.42 5.08333 1036.5 5C1036.83 5.16667 1037.08 5.41667 1037.25 5.75V41C1037.25 44.4167 1037.17 47.2083 1037 49.375C1036.58 50.7083 1034.12 51.375 1029.62 51.375H1028.75C1008.58 51.375 987.583 51.0417 965.75 50.375C965.75 51.125 965.625 52.4583 965.375 54.375C965.208 56.2917 965.083 57.6667 965 58.5L964.375 63.25C963.958 66.4167 963.667 71.9167 963.5 79.75L1002.25 78.875C1008.92 78.7083 1013.75 78.625 1016.75 78.625H1018.75C1023.83 78.625 1027.17 78.7917 1028.75 79.125C1030.33 79.375 1031.12 80.2083 1031.12 81.625L1031 82.625V85.625L1031.62 117.75L1031.5 117.875V117.75C1006.17 119 985.917 119.625 970.75 119.625H964.875V149.875L1032.75 147.75C1036.5 147.75 1038.88 148.292 1039.88 149.375C1039.79 151.542 1039.75 154.625 1039.75 158.625L1040.62 192.625C1040.62 194.708 1039.71 195.917 1037.88 196.25L996.375 195.875C988.208 195.875 971.958 196.167 947.625 196.75L927.125 197.25C912.625 197.75 901.875 198 894.875 198L894.5 197.75H894.625C893.792 196.917 893 196.125 892.25 195.375V191L893 57.375L893.125 39.25ZM1207.88 99C1207.88 99.0833 1207.83 99.2917 1207.75 99.625V100C1207.42 103.5 1207.25 107.417 1207.25 111.75C1207.25 116.083 1207.58 120.667 1208.25 125.5C1209 130.333 1210.17 135.167 1211.75 140C1213.42 144.833 1215.96 148.75 1219.38 151.75C1223.04 154.917 1227.12 156.5 1231.62 156.5C1236.21 156.5 1240.04 155.875 1243.12 154.625C1246.29 153.292 1248.92 151.625 1251 149.625C1253.17 147.625 1255.04 144.917 1256.62 141.5C1260.62 132.417 1262.62 118.333 1262.62 99.25C1262.62 79.8333 1260.38 66.25 1255.88 58.5C1251.46 50.6667 1244.75 46.75 1235.75 46.75C1231.25 46.75 1227.29 47.8333 1223.88 50C1220.54 52.1667 1218 54.4167 1216.25 56.75C1214.58 59.0833 1212.83 64.0417 1211 71.625C1209.25 79.2083 1208.38 86.2083 1208.38 92.625L1207.88 99ZM1136 100L1136.25 97.25C1137.25 86.8333 1138.58 77.625 1140.25 69.625C1141.92 61.5417 1144.62 54 1148.38 47C1157.29 31.5833 1169.71 19.9167 1185.62 12C1201.62 4 1218.83 0 1237.25 0C1255.75 0 1272.54 3.70833 1287.62 11.125C1296.62 15.5417 1303.67 21.125 1308.75 27.875C1318.5 40.0417 1324.92 51.25 1328 61.5C1331.08 71.75 1332.62 83.5833 1332.62 97C1332.62 126.833 1326.46 149.583 1314.12 165.25L1308.38 172.875C1300.62 181.875 1289.67 188.833 1275.5 193.75C1261.33 198.583 1247.29 201.083 1233.38 201.25C1209.54 201.25 1190 196.25 1174.75 186.25C1148.92 169.5 1136 140.75 1136 100ZM1540.75 106.5L1540.62 114.875V161.125L1540.88 183.125V189.375L1541 195.25C1540.5 195.917 1538.46 196.25 1534.88 196.25H1531.62L1492.38 196.75C1475.71 196.75 1463.29 196.708 1455.12 196.625C1453.88 195.292 1449.33 183.167 1441.5 160.25L1417.62 96.875L1413.12 97.5L1413 110.25V144.125L1413.5 178V192C1413.5 195.75 1412.67 197.708 1411 197.875C1402.75 197.625 1394.88 197.5 1387.38 197.5H1383.5L1364.62 198H1362.12L1353.12 198.25L1352.75 198C1350 195.417 1348.62 193.542 1348.62 192.375V190.125L1348.75 187.625L1349.38 138.875C1349.38 85.375 1349.88 44.9167 1350.88 17.5L1351.12 7.125C1351.12 6.375 1379.83 5.70833 1437.25 5.125C1437.75 5.45833 1438.5 7.29167 1439.5 10.625V10.25L1440.25 12.75C1446.42 30.4167 1453.92 50.7083 1462.75 73.625C1471.58 96.4583 1476.08 108.125 1476.25 108.625L1480.5 108.375L1481 6.5C1481 5.83333 1487.08 5.5 1499.25 5.5L1530.62 6.125H1539.88C1540.46 33.7083 1540.75 67.1667 1540.75 106.5ZM206.875 291.5C205.875 315.083 205.375 339.333 205.375 364.25V401.5H196.25L193.125 401.375L148.75 401.75C145.917 401.75 144.417 401.792 144.25 401.875C144.25 401.792 144.417 401.083 144.75 399.75V399L144.875 398.5C144.458 392.5 144.25 385.208 144.25 376.625L144.75 237L144.625 230.5V224.25L144.375 212.5C144.375 211.667 144.833 210.792 145.75 209.875H162.875L172.875 209.75C196.375 209.75 213.167 210.083 223.25 210.75C233.417 211.417 240.708 211.75 245.125 211.75C247.542 226.083 251.125 245.083 255.875 268.75L264.75 313.5H269.125L285.125 231.75C285.375 230.5 285.958 226.875 286.875 220.875C287.792 214.792 288.5 211.417 289 210.75H289.5L370.875 210L375.75 210.125H389.75C390.5 210.458 390.917 212 391 214.75L392.25 262C393.25 301.167 393.958 331.667 394.375 353.5C394.375 370.333 394.125 386.125 393.625 400.875C393.375 401.875 391.708 402.458 388.625 402.625L383 402.875C378.5 403.042 375.167 403.125 373 403.125H366.5C358.417 403.208 346.5 403.25 330.75 403.25C327.833 400.667 326.375 389.5 326.375 369.75L326.625 330.5V320.375C326.625 311.458 326.583 304.875 326.5 300.625L321.75 299.75C319 309.833 313.708 332.292 305.875 367.125L304.75 372.125C304.167 374.708 303.167 379.333 301.75 386C300.417 392.583 299.333 397.583 298.5 401C297.5 402.167 293.083 402.75 285.25 402.75H283.625L269.625 402.375L262 402.5H256.125L246.25 402.625H242.75C238.917 402.625 236.792 401.75 236.375 400L236.5 400.125L225.125 350.5C224.792 349.25 224.042 346.542 222.875 342.375C221.708 338.125 221.042 334.583 220.875 331.75L211.5 291.25L206.875 291.5ZM614.375 400.375C614.292 401.458 612 402 607.5 402H596L588.25 402.125H580.625L568.5 402.25C556.417 402.25 546.375 401.958 538.375 401.375C538.125 401.292 537.833 400.792 537.5 399.875L536.875 397.25C536.125 388.667 534.167 380.375 531 372.375L477.5 372.875C477.167 374.292 476.083 378.5 474.25 385.5C472.417 392.5 471.042 397.792 470.125 401.375C469.292 402.208 465.333 402.625 458.25 402.625L455.125 402.5H447.875L415.375 403.25H411.625L408.125 403.375H399.375C398.792 402.792 398.167 402.042 397.5 401.125C405.833 372.292 417.125 336.542 431.375 293.875L434.25 285H434.125L437.5 274.625C438.583 271.292 441.667 262.042 446.75 246.875C451.917 231.708 455.125 221.917 456.375 217.5C457.708 213.083 458.5 210.792 458.75 210.625H479.5L523.875 210L535.875 210.625L545.75 210C550.75 210 553.25 211 553.25 213C561.583 236.25 572.708 269.708 586.625 313.375C600.542 357.042 608.375 381.583 610.125 387L611.875 393.25C612.458 395.5 613.292 397.875 614.375 400.375ZM490.625 332.125L495.75 332.25L525.625 332.125C524.375 322.208 523.417 314.917 522.75 310.25L518 288.875C513 266.792 510.417 255.542 510.25 255.125C510.083 254.708 509.917 254.333 509.75 254C509.667 253.583 509.583 253.333 509.5 253.25C509.417 253.083 509.292 252.833 509.125 252.5C509.042 252.167 508.917 251.958 508.75 251.875C508.667 251.708 508.542 251.5 508.375 251.25C507.792 250.25 506.583 249.375 504.75 248.625C502.5 249.125 495.792 274.208 484.625 323.875L483.25 332.125H490.625ZM810.625 311.5L810.5 319.875V366.125L810.75 388.125V394.375L810.875 400.25C810.375 400.917 808.333 401.25 804.75 401.25H801.5L762.25 401.75C745.583 401.75 733.167 401.708 725 401.625C723.75 400.292 719.208 388.167 711.375 365.25L687.5 301.875L683 302.5L682.875 315.25V349.125L683.375 383V397C683.375 400.75 682.542 402.708 680.875 402.875C672.625 402.625 664.75 402.5 657.25 402.5H653.375L634.5 403H632L623 403.25L622.625 403C619.875 400.417 618.5 398.542 618.5 397.375V395.125L618.625 392.625L619.25 343.875C619.25 290.375 619.75 249.917 620.75 222.5L621 212.125C621 211.375 649.708 210.708 707.125 210.125C707.625 210.458 708.375 212.292 709.375 215.625V215.25L710.125 217.75C716.292 235.417 723.792 255.708 732.625 278.625C741.458 301.458 745.958 313.125 746.125 313.625L750.375 313.375L750.875 211.5C750.875 210.833 756.958 210.5 769.125 210.5L800.5 211.125H809.75C810.333 238.708 810.625 272.167 810.625 311.5ZM836.125 385.625C836.125 368.708 836.583 356.958 837.5 350.375C837.5 314.125 838 277.583 839 240.75C838.75 235.5 838.625 230.208 838.625 224.875V220.75C838.292 218.167 838.125 215.875 838.125 213.875C838.125 211.875 838.333 210.583 838.75 210C856.583 211.083 872.208 211.625 885.625 211.625C899.042 211.625 908.25 211.375 913.25 210.875C913.417 211.125 913.542 211.833 913.625 213H912.75V258.25L913.625 360C913.625 360.75 913.75 361.375 914 361.875V362.125C914.25 362.625 914.375 363.167 914.375 363.75L915.375 400.125C914.958 401.042 914.208 401.75 913.125 402.25H908.875L838.875 403.375C838.042 402.958 836.958 402.333 835.625 401.5L835.75 399.375L836.125 385.625ZM1095.62 257.125C1095.62 259.875 1095.33 261.25 1094.75 261.25C1094.75 261.25 1079.67 261.125 1049.5 260.875C1049.33 268.958 1049.25 281.583 1049.25 298.75C1049.25 315.917 1049.29 327.833 1049.38 334.5L1049.88 400.75C1049.46 401.917 1048.62 402.542 1047.38 402.625L1021 402.25L1020.88 402.375L1012.62 402.25H989.75C983.583 402.25 978.958 402.292 975.875 402.375L973.75 400.5C973.667 400.417 973.125 399.75 972.125 398.5C972.125 391.167 972.417 374.875 973 349.625L974.375 283.125L974.125 280C973.542 271.75 972.958 266.875 972.375 265.375C971.875 263.792 970.833 262.958 969.25 262.875C967.667 262.708 966.5 262.625 965.75 262.625L960.75 262.875L929.75 262.375C928.667 260.208 928.125 255.333 928.125 247.75L928.375 236.75V233.375C928.292 220.042 928.167 212.917 928 212C928.167 212 928.5 212.083 929 212.25L1088.12 210.875C1091.38 210.875 1093.42 211.125 1094.25 211.625C1095.08 212.042 1095.5 212.875 1095.5 214.125V247.125L1095.62 257.125ZM1107.5 244.25L1106.88 211.375C1106.96 211.375 1107.25 211.5 1107.75 211.75C1171.08 210.667 1218.79 210.083 1250.88 210C1251.21 210.167 1251.46 210.417 1251.62 210.75V246C1251.62 249.417 1251.54 252.208 1251.38 254.375C1250.96 255.708 1248.5 256.375 1244 256.375H1243.12C1222.96 256.375 1201.96 256.042 1180.12 255.375C1180.12 256.125 1180 257.458 1179.75 259.375C1179.58 261.292 1179.46 262.667 1179.38 263.5L1178.75 268.25C1178.33 271.417 1178.04 276.917 1177.88 284.75L1216.62 283.875C1223.29 283.708 1228.12 283.625 1231.12 283.625H1233.12C1238.21 283.625 1241.54 283.792 1243.12 284.125C1244.71 284.375 1245.5 285.208 1245.5 286.625L1245.38 287.625V290.625L1246 322.75L1245.88 322.875V322.75C1220.54 324 1200.29 324.625 1185.12 324.625H1179.25V354.875L1247.12 352.75C1250.88 352.75 1253.25 353.292 1254.25 354.375C1254.17 356.542 1254.12 359.625 1254.12 363.625L1255 397.625C1255 399.708 1254.08 400.917 1252.25 401.25L1210.75 400.875C1202.58 400.875 1186.33 401.167 1162 401.75L1141.5 402.25C1127 402.75 1116.25 403 1109.25 403L1108.88 402.75H1109C1108.17 401.917 1107.38 401.125 1106.62 400.375V396L1107.38 262.375L1107.5 244.25ZM1272.75 336.875L1287.75 337H1292.12L1293.75 336.875L1314.88 337.25C1318.62 337.5 1320.71 339.833 1321.12 344.25C1321.29 346 1321.5 347.75 1321.75 349.5C1322.33 353.667 1325.33 355.75 1330.75 355.75C1336.25 355.75 1339.75 353.167 1341.25 348C1342.33 344 1342.88 339.25 1342.88 333.75V330.5H1342.5L1342 312.75C1341.67 301.167 1341.5 284.042 1341.5 261.375C1341.5 238.708 1341.67 222.292 1342 212.125L1341.88 212C1341.88 211.333 1342.12 210.833 1342.62 210.5L1344.25 210.25L1350.38 210.375H1396.12L1405.25 210.25H1417.5C1418.17 210.25 1418.67 210.625 1419 211.375C1418.83 213.208 1418.75 216 1418.75 219.75V221.75L1418.62 223.875L1418.38 230.25C1417.79 246.083 1417.5 269.583 1417.5 300.75V314.5C1417.5 326.25 1417.46 336.083 1417.38 344C1417.29 351.833 1415.33 359.708 1411.5 367.625C1407.75 375.458 1403 381.75 1397.25 386.5C1391.58 391.167 1385 395.042 1377.5 398.125C1364.25 403.542 1350.42 406.25 1336 406.25C1321.58 406.25 1309.54 404.792 1299.88 401.875C1291.29 399.708 1284.17 396.417 1278.5 392C1272.92 387.5 1268.58 383.25 1265.5 379.25C1258.67 370.25 1255.25 359.167 1255.25 346V342.75L1255.12 341.25C1255.12 338 1255.62 336.375 1256.62 336.375L1272.75 336.875ZM175.125 415L198.5 414.625C239.25 414.625 267.875 421.375 284.375 434.875C287.875 437.458 291.708 441.792 295.875 447.875C307.958 465.458 314 484.875 314 506.125C314 544.042 300.958 572.083 274.875 590.25C259.292 601.167 241.375 606.708 221.125 606.875L220.625 607.375H217.5L184.25 607C169.167 607 150.292 607.375 127.625 608.125C126.042 605.125 125.25 601.583 125.25 597.5L125.375 593V573.5L125.625 545.75V500C125.458 489.5 125.375 481.667 125.375 476.5V456L125.5 453.125V417.375C125.5 416.708 130.042 416.167 139.125 415.75C148.208 415.25 155.458 415 160.875 415H175.125ZM228.125 458.25C223.375 454.833 218.125 452.917 212.375 452.5C210.375 452.417 207.625 452.333 204.125 452.25C200.708 452.167 198.208 452.083 196.625 452C195.125 454.25 194.125 455.917 193.625 457L191.375 461.625V468.625C191.375 483.042 191.708 502.583 192.375 527.25L193.125 563.375C193.625 565.958 195.292 567.5 198.125 568C206.708 567.833 213.333 567.25 218 566.25C234.417 560.417 242.625 540.458 242.625 506.375C242.625 481.125 237.792 465.083 228.125 458.25ZM393.125 509C393.125 509.083 393.083 509.292 393 509.625V510C392.667 513.5 392.5 517.417 392.5 521.75C392.5 526.083 392.833 530.667 393.5 535.5C394.25 540.333 395.417 545.167 397 550C398.667 554.833 401.208 558.75 404.625 561.75C408.292 564.917 412.375 566.5 416.875 566.5C421.458 566.5 425.292 565.875 428.375 564.625C431.542 563.292 434.167 561.625 436.25 559.625C438.417 557.625 440.292 554.917 441.875 551.5C445.875 542.417 447.875 528.333 447.875 509.25C447.875 489.833 445.625 476.25 441.125 468.5C436.708 460.667 430 456.75 421 456.75C416.5 456.75 412.542 457.833 409.125 460C405.792 462.167 403.25 464.417 401.5 466.75C399.833 469.083 398.083 474.042 396.25 481.625C394.5 489.208 393.625 496.208 393.625 502.625L393.125 509ZM321.25 510L321.5 507.25C322.5 496.833 323.833 487.625 325.5 479.625C327.167 471.542 329.875 464 333.625 457C342.542 441.583 354.958 429.917 370.875 422C386.875 414 404.083 410 422.5 410C441 410 457.792 413.708 472.875 421.125C481.875 425.542 488.917 431.125 494 437.875C503.75 450.042 510.167 461.25 513.25 471.5C516.333 481.75 517.875 493.583 517.875 507C517.875 536.833 511.708 559.583 499.375 575.25L493.625 582.875C485.875 591.875 474.917 598.833 460.75 603.75C446.583 608.583 432.542 611.083 418.625 611.25C394.792 611.25 375.25 606.25 360 596.25C334.167 579.5 321.25 550.75 321.25 510ZM685 462.125C685 464.875 684.708 466.25 684.125 466.25C684.125 466.25 669.042 466.125 638.875 465.875C638.708 473.958 638.625 486.583 638.625 503.75C638.625 520.917 638.667 532.833 638.75 539.5L639.25 605.75C638.833 606.917 638 607.542 636.75 607.625L610.375 607.25L610.25 607.375L602 607.25H579.125C572.958 607.25 568.333 607.292 565.25 607.375L563.125 605.5C563.042 605.417 562.5 604.75 561.5 603.5C561.5 596.167 561.792 579.875 562.375 554.625L563.75 488.125L563.5 485C562.917 476.75 562.333 471.875 561.75 470.375C561.25 468.792 560.208 467.958 558.625 467.875C557.042 467.708 555.875 467.625 555.125 467.625L550.125 467.875L519.125 467.375C518.042 465.208 517.5 460.333 517.5 452.75L517.75 441.75V438.375C517.667 425.042 517.542 417.917 517.375 417C517.542 417 517.875 417.083 518.375 417.25L677.5 415.875C680.75 415.875 682.792 416.125 683.625 416.625C684.458 417.042 684.875 417.875 684.875 419.125V452.125L685 462.125ZM778.25 504.375C780.25 485.375 783.583 471.083 788.25 461.5C797.167 443 810.458 429.875 828.125 422.125C843.875 415.208 861 411.75 879.5 411.75C910.5 411.75 933.125 420.25 947.375 437.25C955.958 447.333 960.917 459.875 962.25 474.875L963.375 486.625C961.958 487.958 953 488.625 936.5 488.625L916.625 488.375H915L904.125 488.125L901.125 488.25H898.625C896.292 488.25 894.5 484.833 893.25 478C892.083 471.167 890.25 466.667 887.75 464.5C885.333 462.25 882.5 461.125 879.25 461.125C876 461.125 873.125 461.708 870.625 462.875C868.208 464.042 866.208 465.458 864.625 467.125C863.042 468.708 861.708 471 860.625 474C858.625 479.167 857.417 484.667 857 490.5C856.583 496.25 856.375 502.708 856.375 509.875V512.875L855.875 525.5C855.875 548.5 862.375 560.25 875.375 560.75C878.708 560.75 881.042 560.167 882.375 559C885.958 555.833 889.083 549.458 891.75 539.875C892.333 537.875 893.042 536.25 893.875 535H898.625L904.375 535.125H924.625L930.75 535L942.625 535.125H949.875L957.25 535.25H962.25C963.25 535.333 963.958 536.208 964.375 537.875L964 542C963.25 551.833 960.958 560.75 957.125 568.75C950.042 583.417 938.875 594.333 923.625 601.5C908.458 608.583 891.792 612.125 873.625 612.125C841.875 612.125 818.042 602.75 802.125 584C786.208 565.25 778.25 538.708 778.25 504.375ZM1042.88 509C1042.88 509.083 1042.83 509.292 1042.75 509.625V510C1042.42 513.5 1042.25 517.417 1042.25 521.75C1042.25 526.083 1042.58 530.667 1043.25 535.5C1044 540.333 1045.17 545.167 1046.75 550C1048.42 554.833 1050.96 558.75 1054.38 561.75C1058.04 564.917 1062.12 566.5 1066.62 566.5C1071.21 566.5 1075.04 565.875 1078.12 564.625C1081.29 563.292 1083.92 561.625 1086 559.625C1088.17 557.625 1090.04 554.917 1091.62 551.5C1095.62 542.417 1097.62 528.333 1097.62 509.25C1097.62 489.833 1095.38 476.25 1090.88 468.5C1086.46 460.667 1079.75 456.75 1070.75 456.75C1066.25 456.75 1062.29 457.833 1058.88 460C1055.54 462.167 1053 464.417 1051.25 466.75C1049.58 469.083 1047.83 474.042 1046 481.625C1044.25 489.208 1043.38 496.208 1043.38 502.625L1042.88 509ZM971 510L971.25 507.25C972.25 496.833 973.583 487.625 975.25 479.625C976.917 471.542 979.625 464 983.375 457C992.292 441.583 1004.71 429.917 1020.62 422C1036.62 414 1053.83 410 1072.25 410C1090.75 410 1107.54 413.708 1122.62 421.125C1131.62 425.542 1138.67 431.125 1143.75 437.875C1153.5 450.042 1159.92 461.25 1163 471.5C1166.08 481.75 1167.62 493.583 1167.62 507C1167.62 536.833 1161.46 559.583 1149.12 575.25L1143.38 582.875C1135.62 591.875 1124.67 598.833 1110.5 603.75C1096.33 608.583 1082.29 611.083 1068.38 611.25C1044.54 611.25 1025 606.25 1009.75 596.25C983.917 579.5 971 550.75 971 510ZM1251.25 496.5C1250.25 520.083 1249.75 544.333 1249.75 569.25V606.5H1240.62L1237.5 606.375L1193.12 606.75C1190.29 606.75 1188.79 606.792 1188.62 606.875C1188.62 606.792 1188.79 606.083 1189.12 604.75V604L1189.25 603.5C1188.83 597.5 1188.62 590.208 1188.62 581.625L1189.12 442L1189 435.5V429.25L1188.75 417.5C1188.75 416.667 1189.21 415.792 1190.12 414.875H1207.25L1217.25 414.75C1240.75 414.75 1257.54 415.083 1267.62 415.75C1277.79 416.417 1285.08 416.75 1289.5 416.75C1291.92 431.083 1295.5 450.083 1300.25 473.75L1309.12 518.5H1313.5L1329.5 436.75C1329.75 435.5 1330.33 431.875 1331.25 425.875C1332.17 419.792 1332.88 416.417 1333.38 415.75H1333.88L1415.25 415L1420.12 415.125H1434.12C1434.88 415.458 1435.29 417 1435.38 419.75L1436.62 467C1437.62 506.167 1438.33 536.667 1438.75 558.5C1438.75 575.333 1438.5 591.125 1438 605.875C1437.75 606.875 1436.08 607.458 1433 607.625L1427.38 607.875C1422.88 608.042 1419.54 608.125 1417.38 608.125H1410.88C1402.79 608.208 1390.88 608.25 1375.12 608.25C1372.21 605.667 1370.75 594.5 1370.75 574.75L1371 535.5V525.375C1371 516.458 1370.96 509.875 1370.88 505.625L1366.12 504.75C1363.38 514.833 1358.08 537.292 1350.25 572.125L1349.12 577.125C1348.54 579.708 1347.54 584.333 1346.12 591C1344.79 597.583 1343.71 602.583 1342.88 606C1341.88 607.167 1337.46 607.75 1329.62 607.75H1328L1314 607.375L1306.38 607.5H1300.5L1290.62 607.625H1287.12C1283.29 607.625 1281.17 606.75 1280.75 605L1280.88 605.125L1269.5 555.5C1269.17 554.25 1268.42 551.542 1267.25 547.375C1266.08 543.125 1265.42 539.583 1265.25 536.75L1255.88 496.25L1251.25 496.5Z" fill="white"/>
</svg>
