<svg width="988" height="1024" viewBox="0 0 988 1024" fill="none" xmlns="http://www.w3.org/2000/svg">
<path d="M133.893 130.286C131.067 146.204 125.48 176.267 116.552 223.397C106.839 275.013 98.8886 318.429 93.2157 351.187C93.2873 395.021 93.6347 438.484 94.2579 481.574C93.9893 484.633 93.5595 486.887 93.0116 488.39C92.4744 490.054 91.5289 491.288 90.1644 492.028C83.3419 495.892 73.0168 502.268 58.8991 511.788C44.4698 522.328 33.1025 531.065 25.066 537.376C22.3477 532.482 21.1336 525.13 21.4774 515.32C21.9824 510.543 22.3692 505.263 22.6593 499.413C22.9601 493.628 23.2502 486.297 23.5296 477.421C23.8304 468.576 24.0238 462.898 24.1312 460.43C24.4607 452.924 24.7938 445.407 25.1304 437.879C27.5156 387.777 26.28 344.092 21.5956 306.129C20.951 299.904 20.2741 293.26 19.5543 286.337C18.9204 279.296 18.3187 272.491 17.7277 265.868C17.1583 259.214 16.5674 252.484 15.955 245.604C15.3533 238.692 14.7624 231.694 14.1715 224.749C13.6557 217.762 13.14 210.893 12.6243 204.077C12.1086 197.251 11.5606 190.135 10.9697 182.868C10.4433 175.57 9.90605 168.539 9.33661 161.917C6.13488 130.726 3.02267 99.2671 0 67.5397C0.193394 64.6954 1.03144 62.0335 2.46041 59.7366C3.88937 57.4612 5.18941 56.4844 6.42498 56.7098C13.6522 58.6919 20.7934 61.0497 27.8487 63.7831C30.7388 65.0281 35.015 67.0782 40.7201 69.9439C46.4574 72.917 50.7014 75.171 53.4841 76.5985C54.2254 77.3069 55.042 80.1942 55.8907 85.2388C56.7395 90.3371 57.5991 97.0776 58.4371 105.503C59.3181 113.929 60.1776 123.009 60.9727 132.551C61.8 141.964 62.5736 152.44 63.3257 163.924C64.0777 175.398 64.7224 185.573 65.2488 194.321C65.8505 203.1 66.42 212.041 66.9679 221.164C67.5696 230.298 67.9564 236.255 68.1175 239.057C74.607 187.358 80.4661 138.687 85.6949 93.0419C100.787 101.657 115.843 110.365 130.863 119.167C131.626 119.875 132.195 121.034 132.614 122.633C133.033 124.082 133.474 126.648 133.893 130.286ZM129.541 286.476C129.377 277.84 129.212 269.224 129.047 260.631C129.219 239.014 130.562 219.984 133.044 203.648C135.429 187.569 138.556 174.958 142.445 165.792C146.313 156.948 150.826 150.475 156.015 146.311C161.151 142.254 166.587 140.493 172.335 140.934C178.115 141.502 184.154 143.799 190.46 147.781C193.942 149.982 197.584 152.912 201.398 156.561C205.277 160.264 209.402 164.826 213.807 170.246C218.223 175.634 222.542 182.149 226.786 189.856C231.073 197.423 234.769 205.483 237.853 214.07C244.159 230.599 249.102 246.86 252.658 262.96C256.3 278.866 258.9 295.921 260.49 314.2C264.133 352.572 263.09 382.775 257.246 405.476C256.386 408.867 255.53 412.266 254.678 415.672C252.454 424.903 248.704 432.706 243.354 439.081C237.982 445.607 232.33 450.33 226.464 453.206C220.522 456.319 214.377 458.305 207.973 459.067C200.399 460.119 193.179 459.496 186.345 457.113C179.501 454.773 173.41 451.027 168.123 445.736C162.837 440.434 158.003 433.489 153.63 424.946C149.289 416.305 145.658 406.807 142.724 396.524C139.888 386.081 137.46 374.575 135.461 361.942C133.571 349.158 132.163 336.6 131.196 324.343C130.337 312.011 129.789 299.378 129.541 286.476ZM193.039 221.937C190.826 220.939 188.892 221.272 187.248 222.936C185.658 224.685 184.379 227.089 183.434 230.159C182.521 233.261 181.811 237.726 181.306 243.565C180.802 249.329 180.458 254.62 180.329 259.514C180.178 264.237 180.189 270.409 180.361 277.976C180.511 285.435 180.673 291.274 180.834 295.514C181.049 299.646 181.328 305.002 181.683 311.613C182.016 317.914 182.435 324.01 182.918 329.817C183.466 335.495 184.24 341.624 185.25 348.171C186.292 354.525 187.506 360.16 188.827 365.001C190.224 369.691 191.943 373.716 194.006 377.054C196.123 380.231 198.39 381.991 200.818 382.345C203.321 382.464 205.481 381.659 207.286 379.973C209.069 378.149 210.498 375.863 211.583 373.115C212.647 370.26 213.453 366.471 213.979 361.673C214.516 356.951 214.828 352.335 214.935 347.945C215.107 343.577 215.086 338.092 214.817 331.491C214.624 324.955 214.388 319.341 214.108 314.64C213.829 309.821 213.453 303.832 212.959 296.619C212.604 291.328 212.185 286.369 211.723 281.764C211.315 277.213 210.756 272.104 210.068 266.427C209.392 260.813 208.532 255.736 207.522 251.303C206.491 246.731 205.32 242.416 204.009 238.295C202.698 234.044 201.097 230.513 199.195 227.69C197.347 224.889 195.295 222.968 193.039 221.937ZM276.091 364.228C271.159 309.993 267.667 269.893 265.379 243.683C265.322 243.017 265.264 242.363 265.207 241.719C265.143 240.957 264.863 238.316 264.369 233.744C263.864 229.053 263.477 225.104 263.198 221.884C262.081 209.068 261.973 202.188 262.854 201.136C263.123 201.308 263.52 201.587 264.068 202.059C264.595 202.478 264.981 202.757 265.25 202.929C273.963 207.619 284.117 213.662 295.72 221.014C299.273 223.268 302.826 225.522 306.378 227.776C306.797 228.13 307.367 228.817 308.108 229.837C308.893 230.76 309.408 231.318 309.666 231.479C310.193 236.223 311.117 244.413 312.449 256.08C313.824 267.779 314.984 277.911 315.898 286.466C316.886 295.052 317.778 303.478 318.584 311.71C320.589 330.729 322.638 349.795 324.729 368.907C325.138 372.546 325.524 375.519 325.879 377.805C326.255 380.07 326.792 382.807 327.512 385.952C328.275 389.107 329.242 391.576 330.413 393.379C331.638 395.107 333.013 396.138 334.571 396.503C336.763 397.039 338.331 395.805 339.277 392.778C340.212 389.708 340.426 385.941 339.9 381.476C337.916 364.153 335.971 346.876 334.066 329.645C333.335 323.302 332.304 313.395 330.961 299.946C329.693 286.551 328.619 276.086 327.705 268.466C327.354 265.103 327.004 261.743 326.653 258.387C326.545 257.368 326.341 255.79 326.019 253.708C325.696 251.497 325.481 249.822 325.363 248.727C325.127 246.481 324.89 244.245 324.654 242.019C324.579 239.969 325.127 239.089 326.276 239.379C336.29 245.776 351.299 255.565 371.305 268.648C371.384 269.328 371.463 269.997 371.541 270.655C372.68 271.378 373.823 272.101 374.969 272.824C376.57 290.115 378.686 310.304 381.372 333.423C382.447 342.582 383.532 351.752 384.628 360.933C385.068 364.636 385.713 370.281 386.551 377.923C387.41 385.587 388.076 391.276 388.549 395.021C389.924 405.83 390.139 415.2 389.162 423.207C388.227 431.3 386.443 437.761 383.757 442.527C381.104 447.367 377.601 451.242 373.25 454.14C368.898 457.124 364.343 459.099 359.572 459.958C354.791 460.891 349.505 461.117 343.725 460.602C338.138 460.119 332.755 458.981 327.63 457.167C322.538 455.46 317.187 452.434 311.579 448.054C305.949 443.514 300.888 437.879 296.397 431.064C291.928 424.194 287.823 415.028 284.16 403.597C280.517 392.081 277.81 378.932 276.091 364.228ZM390.977 354.117C391.479 338.389 392.02 322.876 392.6 307.578C392.643 306.784 392.718 305.699 392.793 304.272C392.89 301.417 392.997 299.378 393.072 298.1C393.169 296.78 393.277 295.149 393.438 293.195C393.642 291.306 393.857 289.975 394.039 289.224C394.287 288.43 394.609 287.657 394.996 286.873C395.372 286.025 395.855 285.618 396.425 285.607C397.005 285.628 397.682 285.875 398.466 286.369C405.872 291.049 413.271 295.707 420.663 300.344C429.345 305.742 433.803 309.36 434.029 311.238C434.058 311.51 434.09 311.782 434.126 312.054C434.029 311.989 433.997 312.086 434.029 312.343C430.344 333.477 428.195 347.001 427.486 352.164C426.712 356.743 425.939 361.373 425.165 366.052C424.746 367.662 419.739 366.793 410.102 363.283C407.874 362.453 405.647 361.616 403.419 360.772C403.011 360.611 402.388 360.418 401.539 360.16C400.733 359.924 400.078 359.698 399.626 359.527C398.305 359.022 397.295 358.55 396.554 358.121C395.587 357.748 394.62 357.373 393.653 356.994C393.581 356.371 393.506 355.738 393.427 355.094C392.61 354.765 391.794 354.439 390.977 354.117ZM564.548 450.502C563.818 452.24 561.894 453.668 558.746 454.752C555.641 455.825 551.741 456.695 547.014 457.36C542.276 457.972 539.751 458.294 539.428 458.358C536.345 458.97 534.099 459.324 532.703 459.421C530.418 459.829 528.133 460.222 525.848 460.602C524.752 460.29 523.559 458.272 522.227 454.537C520.895 450.738 519.305 445.35 517.468 438.384C515.684 431.429 514.76 427.79 514.642 427.35C513.471 421.178 512.106 417.25 510.548 415.49C508.958 413.665 506.487 412.903 503.103 413.171C502.078 413.243 501.061 413.307 500.051 413.365C502.415 428.735 504.886 444.473 507.465 460.58C507.508 461.385 507.121 462.136 506.337 462.759C505.552 463.392 504.317 463.843 502.651 464.133C501.061 464.498 499.6 464.702 498.3 464.809C497.043 464.991 495.356 465.12 493.229 465.163C491.112 465.228 489.812 465.281 489.329 465.303C485.934 465.46 482.528 465.592 479.111 465.7C473.309 465.807 468.936 465.904 465.982 466.033C465.241 465.592 464.488 465.099 463.736 464.508C456.423 413.111 449.923 364.153 444.236 317.635C444.021 315.853 445.966 316.197 450.059 318.59C471.533 328.136 491.445 330.808 509.796 326.608C518.896 322.529 526.256 322.196 531.951 325.856C537.752 329.538 541.631 336.933 543.554 347.913C546.047 362.188 542.695 374.5 533.304 384.277C535.399 384.557 537.355 385.211 539.149 386.242C540.976 387.272 542.533 388.496 543.876 389.934C545.209 391.318 546.487 393.1 547.68 395.301C548.905 397.501 549.904 399.615 550.731 401.633C551.548 403.683 552.364 406.141 553.202 409.039C554.094 411.948 554.792 414.502 555.33 416.681C555.856 418.86 556.479 421.479 557.231 424.559C557.994 427.575 558.617 429.98 559.069 431.772C559.577 434.627 560.089 437.489 560.605 440.359C560.927 441.378 561.604 442.731 562.603 444.469C563.667 446.198 564.376 447.496 564.72 448.387C564.956 449.697 564.903 450.405 564.548 450.502ZM492.584 363.391C492.992 366.514 493.326 368.854 493.573 370.389C493.831 371.934 494.346 373.984 495.152 376.507C495.969 379.083 496.914 380.907 497.967 381.991C499.869 381.895 501.62 381.508 503.21 380.875C504.843 380.22 506.358 379.244 507.766 377.945C509.152 376.635 510.129 374.843 510.688 372.568C511.29 370.228 511.376 367.566 510.946 364.625C510.709 362.961 510.258 361.566 509.603 360.45C508.947 359.28 508.12 358.432 507.099 357.874C506.1 357.326 505.101 356.908 504.134 356.661C503.21 356.339 502.071 356.189 500.739 356.221C499.439 356.167 498.418 356.156 497.645 356.167C496.893 356.189 495.979 356.232 494.916 356.296C494.378 356.325 493.845 356.346 493.315 356.36C492.681 356.736 492.326 357.434 492.23 358.496C492.176 359.559 492.294 361.19 492.584 363.391ZM570.511 444.641C570.282 443.382 570.053 442.122 569.823 440.863C567.771 429.636 564.903 413.322 561.228 392.252C557.661 371.677 554.954 356.35 553.073 346.024C550.796 333.495 548.496 320.826 546.176 308.018C569.003 295.009 591.831 281.872 614.659 268.605C617.216 279.489 619.773 290.347 622.33 301.181C622.383 301.395 622.502 301.878 622.684 302.662C622.878 303.456 622.996 303.993 623.06 304.24C623.125 304.519 623.222 305.013 623.361 305.764C623.469 306.451 623.49 306.955 623.436 307.277C623.426 307.589 623.372 308.072 623.297 308.716C623.232 309.274 623.114 309.692 622.91 310.036C622.706 310.368 622.426 310.733 622.072 311.163C621.696 311.506 621.255 311.817 620.772 312.086C620.199 312.393 619.629 312.701 619.064 313.009C608.491 318.697 598.822 323.538 590.033 327.552C590.173 328.615 590.366 330.289 590.603 332.575C590.893 334.765 591.14 336.719 591.365 338.436C591.612 340.099 591.903 341.677 592.225 343.212C602.066 338.289 611.904 333.284 621.739 328.196C622.985 327.542 623.877 327.381 624.414 327.692C624.951 328.003 625.36 328.733 625.639 329.935C625.714 330.257 625.811 330.794 625.94 331.556C626.069 332.296 626.165 332.844 626.241 333.177C626.982 336.343 628.132 340.99 629.711 347.162C631.28 353.355 632.429 358.056 633.171 361.265C633.332 362.661 633.149 363.509 632.601 363.777C632.343 363.906 632.085 363.863 631.86 363.68C618.58 371.172 608.696 376.27 602.195 379.158C601.637 379.401 601.078 379.644 600.519 379.888C601.486 384.589 602.457 389.308 603.431 394.045C607.277 392.424 612.778 389.762 619.923 386.038C627.122 382.195 632.537 379.415 636.179 377.709C639.037 376.356 640.906 376.528 641.766 378.213C642.353 380.796 642.941 383.383 643.528 385.973C644.258 389.258 645.387 394.12 646.912 400.571C648.449 407.053 649.566 411.991 650.286 415.35C651.038 418.849 650.512 421.007 648.717 421.779C646.397 422.778 642.808 424.248 637.973 426.202C633.149 428.112 629.475 429.572 626.982 430.57C620.579 433.082 611.478 436.774 599.66 441.55C587.852 446.101 579.246 449.138 573.906 450.824C573.09 449.936 572.27 449.049 571.446 448.162C570.93 446.337 570.618 445.167 570.511 444.641ZM675.502 319.588C674.485 315.889 673.468 312.193 672.451 308.501C670.259 298.895 669.174 289.675 669.12 280.82C669.013 271.901 669.786 263.883 671.43 256.81C673.074 249.693 675.416 243.135 678.446 237.114C681.433 231.028 684.871 225.844 688.782 221.551C692.714 217.236 697.033 213.662 701.761 210.818C704.361 209.251 707.176 207.984 710.227 206.997C713.332 206.009 716.749 205.322 720.499 204.936C724.259 204.539 728.17 204.925 732.274 206.127C736.432 207.201 740.321 209.079 743.964 211.794C751.356 216.71 757.952 222.581 763.7 229.44C769.599 236.116 775.036 244.316 779.935 254.083C790.324 274.605 794.611 294.193 792.505 312.869C792.162 315.638 791.807 318.408 791.442 321.177C790.464 328.615 787.757 336.107 783.394 343.513C778.989 350.843 774.219 356.929 769.105 361.791C764.055 366.611 758.758 370.646 753.247 373.866C746.854 377.537 740.74 379.877 734.949 380.939C729.201 381.938 724.044 381.852 719.467 380.682C714.944 379.512 710.646 377.43 706.617 374.457C702.599 371.526 699.032 368.081 695.927 364.131C692.897 360.16 690.039 355.673 687.375 350.629C684.764 345.573 682.486 340.529 680.584 335.484C678.715 330.407 677.017 325.116 675.502 319.588ZM713.794 250.938C712.086 251.958 710.764 253.504 709.797 255.565C708.895 257.615 708.304 259.783 708.014 262.069C707.778 264.323 707.842 267.156 708.218 270.559C708.573 273.908 709.002 276.881 709.518 279.51C710.002 282.054 710.775 285.231 711.817 289.052C712.849 292.798 713.676 295.718 714.31 297.811C714.965 299.818 715.814 302.426 716.856 305.635C717.855 308.705 718.887 311.635 719.918 314.383C720.982 317.055 722.282 319.846 723.797 322.755C725.333 325.545 726.902 327.917 728.481 329.817C730.093 331.642 731.919 332.94 733.939 333.724C735.981 334.411 738.022 334.228 740.053 333.198C742.148 331.964 743.845 330.375 745.146 328.465C746.424 326.468 747.348 324.397 747.939 322.229C748.498 320.007 748.713 317.388 748.573 314.361C748.422 311.367 748.122 308.555 747.649 306C747.23 303.424 746.467 300.365 745.393 296.802C744.35 293.249 743.405 290.244 742.535 287.786C741.643 285.263 740.493 282.172 739.086 278.469C738.054 275.743 737.034 273.253 736.002 270.999C735.046 268.734 733.896 266.255 732.543 263.561C731.21 260.899 729.835 258.656 728.438 256.906C727.009 255.082 725.538 253.504 723.99 252.13C722.422 250.702 720.767 249.897 719.005 249.693C717.286 249.468 715.556 249.876 713.794 250.938ZM825.232 320.705C818.599 305.95 811.787 291.539 804.797 277.471C796.835 262.563 782.127 234.345 761.584 192.668C760.409 190.206 759.238 187.741 758.071 185.273C757.447 183.931 757.233 183.04 757.447 182.611C771.343 174.017 785.31 165.334 799.349 156.561C799.768 156.293 801.949 157.795 806 160.94C810.222 163.956 815.713 167.745 822.621 172.178C829.82 176.267 834.966 178.886 837.899 180.249C850.205 185.323 862.929 189.984 876.073 194.235C866.289 186.643 856.608 178.979 847.032 171.244C844.603 169.194 840.284 165.384 834.182 159.706C828.273 153.749 823.781 148.973 820.612 145.495C819.473 144.164 822.267 141.331 829.068 136.941C831.227 135.535 834.246 133.635 838.168 131.188C842.154 128.665 844.679 127.055 845.603 126.433C847.393 125.209 849.209 123.961 851.05 122.687C851.834 122.14 852.393 121.946 852.737 122.15C869.132 130.265 893.242 141.223 924.776 155.316C945.884 164.84 966.903 174.514 987.833 184.339C988.843 185.573 987.027 188.246 982.364 192.356C981.318 193.28 980.266 194.21 979.205 195.147C974.962 198.915 968.794 204.464 960.704 211.805C952.711 219.082 946.662 224.524 942.536 228.163C931.111 238.159 919.887 247.894 908.864 257.368C907.618 257.969 902.89 256.445 894.66 252.817C885.872 248.803 873.204 242.974 856.916 235.139C841.176 226.853 832.699 221.991 830.916 220.961C833.301 223.923 836.857 228.388 841.552 234.388C846.237 240.431 849.739 245.024 852.092 248.105C853.854 250.434 856.519 253.89 860.107 258.516C863.664 263.207 866.264 266.802 867.95 269.271C870.321 272.834 872.667 276.441 874.988 280.09C876.653 282.795 876.127 285.263 873.441 287.41C858.564 299.016 844.127 310 830.131 320.361C828.498 320.49 826.865 320.604 825.232 320.705ZM305.508 652.748C305.873 654.605 306.518 657.428 307.399 661.281C308.28 665.016 309.097 668.547 309.87 671.993C310.633 675.395 311.482 679.216 312.374 683.413C313.308 687.491 314.039 691.259 314.565 694.747C315.146 698.074 315.565 701.284 315.887 704.396C316.166 707.38 316.102 709.859 315.683 711.749C315.339 713.616 314.619 714.786 313.523 715.248C301.676 720.421 289.696 725.856 277.584 731.551C274.071 729.05 269.354 715.559 263.638 690.583C261.629 681.331 259.287 670.125 256.655 656.827C254.087 643.292 252.282 633.578 251.218 627.74C250.509 623.804 249.807 619.861 249.112 615.911C248.941 614.892 248.554 612.981 247.952 610.18C247.393 607.207 247.007 604.942 246.792 603.311C247.34 620.656 248.833 645.084 251.498 676.168C254.613 706.629 256.891 726.625 258.041 736.639C258.202 739.794 256.042 742.585 251.465 745.065C241.466 750.739 231.324 756.699 221.038 762.946C217.192 765.382 214.42 765.103 212.744 762.002C203.79 741.83 195.005 721.069 186.388 699.717C183.939 692.88 181.36 685.699 178.663 678.218C176.063 670.565 173.098 661.775 169.767 651.771C166.512 641.585 164.17 633.933 162.665 628.899C168.661 669.61 174.162 699.008 178.577 718.274C181.013 728.07 183.505 737.752 186.055 747.318C189.579 759.855 192.405 769.053 194.404 775.118C194.715 777.64 194.393 779.218 193.394 779.926C190.435 782.044 187.474 784.187 184.508 786.355C180.737 789.146 175.15 793.45 167.704 799.353C160.119 805.546 154.274 810.43 150.202 813.832C146.442 817.009 144.229 817.761 143.53 816.011C120.767 732.335 104.322 634.745 94.1934 523.241C94.1397 521.749 94.2364 520.407 94.505 519.269C94.8058 517.885 95.2893 516.736 95.9232 515.878C96.6431 514.761 97.2985 513.892 97.9324 513.205C98.5878 512.454 99.4043 511.821 100.393 511.262C101.392 510.543 102.219 510.039 102.853 509.685C103.487 509.18 104.304 508.729 105.314 508.343C106.313 507.806 106.947 507.474 107.215 507.323C111.362 505.169 115.474 503.087 119.549 501.077C138.76 492.587 151.9 488.207 159.399 486.844C166.888 485.653 172.507 484.601 176.353 483.538C179.469 501.549 184.508 527.706 191.728 561.258C197.544 585.515 203.568 609.21 209.8 632.344C207.207 580.667 205.398 528.164 204.374 474.834C204.374 474.834 204.621 474.963 205.115 475.124C205.61 475.295 205.986 475.36 206.211 475.317C212.497 474.308 221.651 472.816 233.576 471.12C245.331 469.811 254.13 469.102 260.05 468.845C264.125 468.716 268.19 468.609 272.244 468.523C273.802 468.823 274.952 471.989 275.683 477.979C292.261 584.452 303.123 641.167 305.508 652.748ZM320.292 707.938C318.498 684.089 317.198 659.596 316.413 634.555C315.887 609.429 315.726 579.408 316.113 544.632C316.94 510.125 317.681 486.554 318.089 473.621C318.455 471.603 318.713 470.38 318.863 469.993C323.268 470.201 327.666 470.419 332.057 470.648C335.119 470.83 339.621 471.002 345.551 471.152C351.45 471.356 355.909 471.571 358.928 471.786C363.218 472.093 367.505 472.401 371.788 472.709C372.551 472.762 373.196 472.87 373.712 472.988C374.217 473.031 374.84 473.159 375.57 473.385C376.301 473.61 376.903 473.932 377.354 474.308C377.88 474.716 378.321 475.252 378.729 475.993C379.148 476.734 379.417 477.603 379.556 478.601C401.381 542.464 423.772 604.227 446.728 663.889C447.061 665.542 446.943 666.787 446.363 667.581C445.837 668.44 444.623 669.138 442.742 669.696C440.572 670.34 438.398 670.991 436.221 671.649C434.33 672.218 431.515 673.12 427.787 674.343C424.037 675.588 421.222 676.479 419.32 677.08C418.74 677.252 417.569 677.681 415.828 678.315C414.142 679.023 412.691 679.538 411.477 679.828C410.284 680.214 408.909 680.504 407.362 680.719C405.89 680.976 404.601 680.88 403.526 680.375C402.506 679.946 401.764 679.152 401.249 677.982C400.64 675.048 400.031 672.118 399.422 669.191C398.015 664.855 396.328 661.013 394.34 657.578C392.363 654.154 390.687 652.641 389.312 653.016C380.86 655.413 372.372 657.868 363.849 660.379C364.601 670.697 365.385 681.019 366.202 691.345C366.148 693.76 363.634 695.874 358.627 697.667C356.65 698.382 354.666 699.105 352.675 699.835C350.537 700.629 347.378 701.938 343.188 703.849C338.987 705.759 335.806 707.165 333.625 708.013C332.923 708.292 332.214 708.571 331.498 708.851C330.692 709.173 329.403 709.72 327.662 710.557C325.954 711.341 324.611 711.92 323.633 712.328C323.042 711.706 321.947 710.246 320.292 707.938ZM355.479 602.881C356.603 604.978 357.728 607.082 358.853 609.192C360.507 608.842 362.169 608.488 363.838 608.13C367.856 607.293 371.434 606.101 374.571 604.599C377.762 603.021 379.159 601.282 378.804 599.339C370.897 573.036 363.118 546.374 355.468 519.355C354.533 519.387 353.792 522.683 353.212 529.316C352.696 535.949 352.632 543.484 352.986 551.877C353.746 568.85 354.576 585.851 355.479 602.881ZM449.715 664.995C445.933 646.219 442.223 627.4 438.584 608.538C434.641 587.812 428.055 548.174 419.557 490.29C419.048 486.927 418.54 483.567 418.031 480.211C417.752 478.397 417.805 477.335 418.149 477.045C435.025 477.703 451.767 478.061 468.378 478.118C468.851 478.107 470.258 480.877 472.557 486.383C474.942 491.91 477.886 499.016 481.389 507.742C484.967 516.382 487.47 522.307 488.888 525.581C494.561 538.825 500.266 552.067 506.004 565.304C503.404 550.75 500.85 536.289 498.343 521.921C497.72 518.239 496.624 511.531 495.088 501.882C493.626 492.211 492.445 484.741 491.542 479.438C491.22 477.474 494.819 476.208 502.318 475.542C504.65 475.317 507.852 475.038 511.913 474.684C515.974 474.297 518.456 474.05 519.391 473.911C521.138 473.653 522.886 473.392 524.634 473.127C525.375 473.009 525.773 473.138 525.848 473.557C529.393 492.63 534.422 520.74 541.137 558.371C545.857 584.116 550.674 610.015 555.588 636.068C555.641 638.097 554.373 639.428 551.795 640.029C551.2 640.165 550.609 640.305 550.022 640.448C547.669 640.995 544.188 641.897 539.633 643.142C535.056 644.43 531.585 645.353 529.222 645.932C522.496 647.607 515.763 649.306 509.023 651.031C508.292 650.805 505.982 646.276 502.093 637.41C497.913 627.772 491.8 613.733 483.763 595.25C475.802 576.606 471.375 566.152 470.451 563.941C471.279 568.567 472.493 575.501 474.137 584.742C475.802 593.994 477.091 600.949 477.972 605.608C478.638 609.096 479.681 614.301 481.109 621.246C482.56 628.18 483.624 633.385 484.311 636.873C485.3 641.847 486.292 646.816 487.287 651.782C488.029 655.42 487.481 657.492 485.622 657.997C474.935 660.966 464.209 663.996 453.443 667.088C452.197 666.401 450.954 665.703 449.715 664.995ZM569.49 636.863C565.58 614.967 562.947 598.931 561.551 588.789C555.899 557.737 550.635 526.761 545.767 496.086C544.575 490.268 543.726 486.018 543.243 483.27C543.063 482.233 542.884 481.202 542.705 480.179C542.007 477.195 541.491 474.769 541.158 472.859C540.943 471.582 541.147 470.347 541.792 469.167C549.399 468.394 560.766 466.097 575.894 462.029C579.482 460.988 581.921 460.119 583.211 459.453C593.059 513.663 603.055 569.522 613.197 627.031C598.643 630.301 584.074 633.578 569.49 636.863ZM595.706 489.313C595.47 488.046 595.169 486.157 594.803 483.657C594.427 481.123 594.17 479.374 593.998 478.483C593.933 478.129 593.643 476.895 593.16 474.759C592.676 472.623 592.289 470.766 591.988 469.177C590.635 461.868 590.398 458.09 591.301 457.8C591.655 457.693 591.967 457.661 592.268 457.704C601.615 454.623 615.421 449.632 633.719 442.334C652.123 434.466 666.004 428.316 675.309 424.162C677.64 423.1 679.177 422.756 679.918 423.121C680.692 423.486 681.293 424.613 681.712 426.502C681.927 427.511 682.146 428.527 682.368 429.55C683.184 433.361 684.42 438.996 686.032 446.52C687.622 454.033 688.803 459.775 689.599 463.779C690.372 467.707 690.093 469.972 688.771 470.53C686.16 471.625 682.239 473.138 677.049 475.091C671.892 476.991 668.024 478.44 665.446 479.438C672.745 520.461 679.743 562.478 686.44 605.489C686.483 608.033 685.892 609.557 684.667 610.051C683.066 610.47 680.724 611.028 677.64 611.758C674.568 612.466 672.225 613.013 670.635 613.421C670.549 613.443 670.474 613.572 670.399 613.754C668.4 614.259 665.564 614.913 661.911 615.74C658.312 616.545 655.626 617.146 653.853 617.586C652.492 617.915 651.135 618.241 649.781 618.563C648.9 618.96 647.611 619.346 645.881 619.754C644.663 618.08 643.449 616.416 642.239 614.763C640.283 602.903 637.597 585.343 634.138 562.213C630.656 539.416 627.895 522.479 625.875 511.273C625.779 510.758 625.596 509.921 625.338 508.762C625.123 507.592 624.962 506.658 624.822 505.928C624.693 505.177 624.479 504.286 624.189 503.212C623.952 502.15 623.673 501.302 623.383 500.712C623.103 500.035 622.803 499.391 622.448 498.823C622.083 498.179 621.685 497.76 621.202 497.599C620.772 497.363 620.288 497.331 619.751 497.502C613.262 499.542 606.776 501.535 600.294 503.481C598.929 503.266 597.393 498.522 595.706 489.313ZM716.545 592.61C716.33 591 716.111 589.393 715.889 587.79C713.902 573.419 710.947 552.446 706.886 525.173C702.556 498.554 699.064 478.848 696.55 465.721C693.391 450.144 690.172 434.749 686.891 419.536C714.281 405.876 742.481 390.846 771.49 374.446C774.842 386.66 778.087 399.079 781.224 411.701C781.289 411.948 781.418 412.527 781.643 413.45C781.858 414.406 782.008 415.039 782.073 415.339C782.148 415.672 782.245 416.263 782.395 417.186C782.524 417.991 782.546 418.613 782.449 419.021C782.417 419.407 782.342 419.998 782.223 420.781C782.127 421.468 781.955 422.005 781.686 422.445C781.407 422.863 781.031 423.336 780.558 423.894C780.064 424.355 779.484 424.774 778.85 425.139C778.105 425.568 777.356 425.994 776.604 426.416C763.077 433.94 750.98 440.037 740.182 444.877C740.343 446.176 740.569 448.215 740.859 451.006C741.181 453.7 741.471 456.115 741.707 458.251C742.008 460.312 742.331 462.265 742.696 464.186C754.736 458.133 766.974 451.765 779.408 445.081C781.009 444.19 782.137 443.933 782.814 444.287C783.47 444.641 783.953 445.532 784.243 447.035C784.318 447.432 784.404 448.108 784.533 449.063C784.651 449.997 784.737 450.673 784.823 451.103C785.554 455.095 786.704 460.966 788.219 468.845C789.69 476.809 790.7 482.927 791.324 487.102C791.42 488.927 791.119 490.043 790.421 490.418C790.109 490.579 789.809 490.526 789.529 490.311C773.059 500.121 761.133 506.529 753.44 510.05C752.788 510.343 752.136 510.636 751.484 510.93C752.394 517.019 753.289 523.144 754.17 529.305C758.629 527.384 765.076 524.153 773.596 519.527C782.309 514.643 788.938 511.026 793.419 508.772C796.986 506.948 799.188 507.162 800.048 509.406C800.456 512.862 800.861 516.328 801.262 519.806C801.745 524.217 802.487 530.775 803.464 539.523C804.388 548.346 805.022 555.075 805.398 559.659C805.785 564.446 804.926 567.322 802.82 568.256C800.091 569.458 795.922 571.197 790.346 573.461C784.813 575.64 780.655 577.283 777.829 578.41C770.62 581.2 760.467 585.268 747.498 590.495C734.724 595.465 725.58 598.749 719.94 600.584C719.116 599.425 718.282 598.266 717.436 597.107C716.921 594.778 716.631 593.286 716.545 592.61ZM860.054 545.426C853.51 549.076 847.601 551.501 842.261 552.746C837.04 553.981 831.968 553.981 827.026 552.757C822.159 551.415 817.926 548.678 814.327 544.632C810.695 540.639 807.515 534.725 804.764 526.954C801.992 519.312 799.93 509.953 798.554 498.93C797.91 494.132 798.458 491.256 800.209 490.311C812.987 483.141 826.084 475.492 839.5 467.363C841.38 466.172 842.874 465.99 843.937 466.816C845.023 467.61 845.775 469.006 846.204 470.959C846.602 472.934 846.989 474.93 847.322 476.938C847.73 478.923 848.353 480.415 849.245 481.403C850.158 482.358 851.469 482.283 853.124 481.231C854.681 480.243 855.874 478.805 856.701 476.927C857.582 474.898 858.087 472.462 858.216 469.596C858.41 466.709 858.42 464.272 858.281 462.33C858.195 460.322 858.012 457.832 857.679 454.924C857.636 454.544 857.59 454.165 857.539 453.786C856.626 447.11 854.671 434.509 851.297 416.488C847.515 399.175 844.292 386.124 841.885 376.947C838.025 363.995 833.96 351.373 829.691 339.08C828.928 337.03 829.712 334.958 832.097 332.801C834.021 331.406 836.932 329.345 840.865 326.543C844.851 323.688 847.859 321.488 849.868 319.985C852.909 317.678 857.41 314.179 863.492 309.392C869.691 304.433 874.44 300.601 877.706 297.982C880.936 295.363 884.192 292.716 887.472 290.04C889.095 288.709 890.728 288.623 892.35 289.825C892.844 291.038 893.618 292.605 894.682 294.558C895.799 296.458 896.626 298.036 897.142 299.238C897.966 300.862 898.779 302.494 899.581 304.132C907.886 326.232 914.118 347.881 918.684 368.521C920.861 383.147 922.656 398.349 924.067 414.127C924.561 423.389 923.992 432.91 922.38 442.548C920.704 452.273 918.394 461.267 915.482 469.478C912.603 477.635 909.186 485.567 905.265 493.231C901.472 500.626 897.615 507.13 893.672 512.701C889.804 518.142 885.786 523.133 881.574 527.674C877.502 532.117 873.698 535.659 870.153 538.439C866.704 541.23 863.341 543.559 860.054 545.426ZM142.499 849.381C142.048 848.426 142.069 847.202 142.585 845.753C143.101 844.175 144.132 842.469 145.625 840.655C147.087 838.787 148.58 836.995 150.106 835.32C151.621 833.635 153.49 831.811 155.693 829.846C157.96 827.839 159.808 826.229 161.28 825.016C162.751 823.814 164.438 822.537 166.318 821.142C168.231 819.596 169.338 818.716 169.681 818.448C173.313 815.585 176.93 812.766 180.533 809.99C182.628 808.391 185.497 806.126 189.139 803.174C192.792 800.223 195.499 798.151 197.208 796.928C225.701 777.758 247.522 774.162 263.424 783.844C264.849 784.853 266.271 785.865 267.689 786.881C269.043 787.933 270.644 789.414 272.492 791.293C274.318 793.074 276.725 796.026 279.765 800.147C282.817 804.108 285.803 808.595 288.715 813.564C291.638 818.534 294.753 824.877 298.084 832.573C301.415 840.225 304.412 848.329 307.077 856.916C311.235 870.139 314.168 882.987 315.919 895.437C317.703 907.813 318.326 919.029 317.832 929.14C317.402 939.207 316.07 948.47 313.878 956.982C311.707 965.343 308.721 972.502 304.928 978.427C301.114 984.265 296.677 988.784 291.552 992.004C290.85 992.448 290.144 992.895 289.435 993.346C287.544 994.537 284.686 996.233 280.84 998.423C277.015 1000.66 274.146 1002.37 272.244 1003.59C261.092 1010.69 251.122 1017.52 242.365 1024C239.453 1020.93 237.186 1017.83 235.607 1014.73C204.994 961.354 173.958 906.238 142.499 849.381ZM261.866 955.812C264.691 953.976 267.023 951.754 268.839 949.221C270.633 946.57 271.944 943.812 272.749 940.935C273.566 938.048 274.006 934.785 274.06 931.082C274.114 927.401 273.888 923.794 273.351 920.252C272.878 916.678 272.073 912.771 270.934 908.51C269.806 904.12 268.634 900.063 267.42 896.371C266.185 892.582 264.702 888.439 263.005 883.91C261.973 881.162 260.942 878.407 259.91 875.645C253.808 859.084 247.393 847.953 240.549 842.512C233.587 837.016 224.874 837.499 214.312 844.25C214.409 845.452 214.495 847.148 214.549 849.306C214.613 851.485 214.688 853.137 214.807 854.361C215.68 856.5 216.561 858.647 217.45 860.801C217.998 862.143 219.394 865.631 221.661 871.212C245.932 928.989 259.19 956.702 261.866 955.812ZM311.783 855.52C310.243 850.504 308.703 845.47 307.163 840.419C303.768 827.206 301.801 814.476 301.243 802.283C300.727 789.887 301.468 778.842 303.435 769.246C305.497 759.619 308.506 750.925 312.47 743.218C316.424 735.49 320.969 729.19 326.094 724.349C331.24 719.552 336.827 715.967 342.844 713.573C346.132 712.285 349.656 711.469 353.416 711.137C357.209 710.825 361.334 711.04 365.761 711.781C370.166 712.511 374.614 714.335 379.127 717.287C383.628 720.088 387.679 723.856 391.257 728.61C398.434 737.487 404.386 747.297 409.178 758.062C413.98 768.581 418.052 780.817 421.415 794.727C428.614 823.514 431.064 848.393 428.797 869.656C428.481 872.769 428.166 875.878 427.851 878.983C427.056 887.28 424.886 895.158 421.372 902.553C417.848 909.927 413.98 915.873 409.747 920.446C405.546 925.072 401.055 928.86 396.285 931.769C390.687 935.172 385.197 937.179 379.825 937.801C374.431 938.445 369.446 937.898 364.859 936.138C360.271 934.399 355.748 931.576 351.353 927.701C346.927 923.859 342.844 919.383 339.137 914.285C335.473 909.143 331.896 903.315 328.447 896.757C324.998 890.113 321.914 883.47 319.228 876.793C316.564 870.042 314.082 862.958 311.783 855.52ZM354.523 770.814C352.535 771.737 350.977 773.454 349.795 775.955C348.699 778.466 347.969 781.203 347.582 784.176C347.26 787.117 347.281 790.895 347.657 795.489C348.023 799.997 348.484 804.011 349.054 807.575C349.591 811.02 350.451 815.346 351.633 820.541C352.793 825.617 353.728 829.557 354.447 832.379C355.189 835.095 356.156 838.605 357.348 842.919C358.476 847.02 359.648 850.926 360.819 854.597C362.011 858.15 363.451 861.885 365.116 865.781C366.803 869.527 368.49 872.736 370.166 875.355C371.853 877.867 373.722 879.777 375.753 881.065C377.805 882.246 379.782 882.375 381.716 881.473C383.693 880.346 385.283 878.736 386.476 876.665C387.647 874.486 388.485 872.146 389 869.634C389.505 867.037 389.667 863.892 389.505 860.157C389.344 856.454 389.043 852.923 388.603 849.671C388.195 846.386 387.486 842.404 386.465 837.714C385.487 833.034 384.617 829.031 383.8 825.725C382.973 822.333 381.899 818.126 380.599 813.07C379.632 809.335 378.686 805.89 377.708 802.734C376.806 799.579 375.721 796.08 374.431 792.248C373.142 788.448 371.799 785.185 370.392 782.523C368.952 779.765 367.437 777.296 365.825 775.085C364.182 772.799 362.377 771.275 360.432 770.545C358.53 769.783 356.564 769.869 354.523 770.814ZM408.458 739.966C408.103 738.399 407.609 736.059 406.997 732.936C406.374 729.759 405.955 727.569 405.697 726.453C405.6 726.002 405.181 724.446 404.472 721.752C403.774 719.058 403.204 716.697 402.753 714.668C400.679 705.298 400.131 700.414 401.098 700.081C401.485 699.942 401.829 699.921 402.151 699.985C412.132 696.529 426.809 691.377 446.03 684.647C465.133 678.218 479.369 673.731 488.802 670.973C491.155 670.297 492.702 670.222 493.444 670.748C494.228 671.273 494.84 672.561 495.259 674.59C495.482 675.671 495.707 676.762 495.936 677.864C496.796 681.942 498.085 687.931 499.826 695.874C501.556 703.72 502.866 709.666 503.769 713.777C504.65 717.791 504.456 720.035 503.178 720.485C500.642 721.376 496.839 722.621 491.789 724.285C486.707 725.992 482.893 727.322 480.347 728.288C490.067 770.606 499.922 812.881 509.914 855.112C510.172 857.688 509.743 859.406 508.604 860.254C507.099 861.144 504.886 862.389 501.975 864.032C499.063 865.674 496.839 866.93 495.335 867.831C495.249 867.874 495.195 868.024 495.131 868.239C493.24 869.366 490.543 870.912 487.062 872.887C483.634 874.851 481.077 876.31 479.38 877.319C478.083 878.092 476.787 878.865 475.49 879.638C474.663 880.346 473.438 881.162 471.794 882.149C470.441 880.661 469.087 879.183 467.733 877.717C464.66 865.094 460.32 846.247 454.711 821.152C449.167 796.047 444.923 777.082 441.937 764.374C441.808 763.783 441.561 762.828 441.195 761.508C440.884 760.166 440.637 759.093 440.443 758.266C440.239 757.408 439.96 756.377 439.573 755.154C439.24 753.93 438.896 752.964 438.541 752.277C438.198 751.504 437.832 750.775 437.424 750.12C436.994 749.379 436.554 748.918 436.038 748.746C435.576 748.499 435.071 748.467 434.523 748.703C427.89 751.494 421.247 754.313 414.593 757.161C413.132 757.021 411.08 751.301 408.458 739.966ZM657.57 750.581C658.795 762.807 658.838 773.711 657.742 783.318C656.646 792.795 654.562 800.577 651.489 806.641C648.427 812.598 644.581 817.095 639.929 820.197C635.352 823.256 630.044 824.823 623.963 824.93C618.312 825.038 612.939 823.986 607.804 821.818C602.679 819.811 598.113 817.138 594.094 813.811C590.065 810.612 586.23 806.759 582.587 802.219C578.902 797.733 575.69 793.064 572.971 788.201C570.232 783.264 567.642 777.812 565.246 771.79C562.861 765.651 560.884 759.876 559.283 754.445C557.726 748.95 556.275 743.143 554.932 737.036C554.223 733.802 553.518 730.56 552.816 727.312C550.925 716.375 550.366 706.199 551.161 696.851C551.945 687.406 553.675 679.549 556.34 673.291C558.993 666.98 562.389 661.495 566.525 656.859C570.651 652.136 574.862 648.573 579.149 646.201C583.436 643.753 587.82 642.025 592.311 641.027C599.574 639.428 606.214 639.525 612.273 641.306C618.344 643.034 623.598 646.222 628.024 650.923C632.419 655.667 636.211 661.431 639.348 668.193C642.475 674.923 645.021 682.715 646.998 691.527C647.621 695.348 648.241 699.173 648.857 703.001C649.276 705.555 644.645 707.573 635.008 709.054C632.719 709.409 629.539 709.827 625.424 710.3C621.374 710.793 618.698 711.158 617.43 711.362C617.205 711.405 616.893 711.502 616.474 711.652C616.034 711.802 615.722 711.877 615.497 711.91C614.358 712.103 613.326 711.469 612.424 709.945C611.543 708.357 610.769 706.393 610.114 704.074C609.512 701.734 608.835 699.395 608.083 697.087C607.385 694.758 606.418 692.89 605.193 691.452C604 689.939 602.604 689.348 601.014 689.659C599.413 689.971 598.113 690.701 597.07 691.838C596.061 692.998 595.384 694.618 595.051 696.722C594.707 698.772 594.47 700.801 594.352 702.851C594.298 704.922 594.47 707.541 594.857 710.75C595.276 713.874 595.663 716.557 595.996 718.736C596.372 720.872 596.888 723.748 597.543 727.365C598.188 730.886 598.661 733.494 598.94 735.158C599.123 736.081 599.402 737.723 599.799 740.138C600.175 742.553 600.519 744.539 600.82 746.02C604.538 764.706 609.297 773.991 615.035 773.915C616.571 773.765 617.635 772.627 618.236 770.545C618.849 768.452 619.085 766.155 618.956 763.665C618.881 761.164 618.827 758.556 618.795 755.798C618.752 752.996 618.924 751.032 619.289 749.98C631.015 748.599 642.74 747.272 654.465 745.998C655.927 746.073 656.969 747.598 657.57 750.581ZM656.797 724.038C656.095 719.595 655.393 715.158 654.691 710.729C653.337 699.405 653.058 688.973 653.874 679.366C654.67 669.642 656.335 661.249 658.838 654.229C661.406 647.124 664.694 640.866 668.669 635.457C672.666 629.908 677.071 625.475 681.874 622.18C686.751 618.82 691.941 616.405 697.463 614.935C700.515 614.119 703.748 613.711 707.154 613.722C710.625 613.743 714.342 614.248 718.328 615.246C722.325 616.244 726.279 618.273 730.179 621.385C734.133 624.434 737.528 628.416 740.407 633.385C746.198 642.938 750.679 653.542 753.902 665.166C757.082 676.78 759.317 690.164 760.617 705.18C763.421 736.628 762.347 762.345 757.566 781.965C756.892 784.799 756.215 787.615 755.535 790.412C753.794 797.872 750.904 804.162 746.865 809.217C742.857 814.144 738.699 817.546 734.401 819.446C730.114 821.389 725.688 822.408 721.111 822.483C715.739 822.58 710.625 821.528 705.779 819.371C700.934 817.235 696.593 814.337 692.747 810.666C688.9 807.049 685.29 802.605 681.895 797.421C678.5 792.291 675.513 786.86 672.934 781.15C670.388 775.472 668.046 769.332 665.886 762.71C663.759 756.088 661.975 749.648 660.514 743.379C659.064 737.09 657.839 730.65 656.797 724.038ZM702.62 666.046C700.772 666.433 699.204 667.592 697.936 669.492C696.711 671.392 695.776 673.57 695.142 676.018C694.541 678.454 694.165 681.674 694.025 685.677C693.864 689.595 693.832 693.137 693.939 696.314C694.047 699.395 694.315 703.323 694.777 708.078C695.207 712.768 695.594 716.407 695.884 719.047C696.228 721.602 696.668 724.907 697.205 728.986C697.721 732.882 698.29 736.628 698.903 740.181C699.526 743.658 700.343 747.394 701.353 751.365C702.373 755.229 703.48 758.653 704.64 761.572C705.844 764.427 707.262 766.842 708.895 768.806C710.56 770.685 712.301 771.651 714.117 771.683C715.997 771.533 717.587 770.792 718.908 769.472C720.198 768.034 721.229 766.306 721.992 764.288C722.744 762.173 723.271 759.415 723.571 756.002C723.883 752.599 724.023 749.304 724.012 746.191C724.055 743.079 723.904 739.215 723.55 734.6C723.249 730.006 722.927 726.077 722.594 722.804C722.25 719.455 721.799 715.29 721.229 710.3C720.799 706.629 720.337 703.226 719.832 700.081C719.381 696.969 718.79 693.513 718.06 689.713C717.351 685.946 716.491 682.672 715.535 679.935C714.546 677.123 713.45 674.569 712.226 672.239C711.012 669.835 709.561 668.107 707.906 667.045C706.284 665.982 704.511 665.649 702.62 666.046ZM913.033 735.523C912.828 737.884 912.549 741.469 912.216 746.342C911.904 751.086 911.604 755.562 911.292 759.919C910.991 764.213 910.647 769.01 910.25 774.28C909.928 779.379 909.53 784.048 909.079 788.298C908.67 792.355 908.23 796.219 907.704 799.901C907.209 803.4 906.586 806.169 905.845 808.144C905.136 810.097 904.341 811.106 903.438 811.17C893.604 811.886 883.798 812.555 874.021 813.178C871.979 809.228 871.066 794.062 871.528 767.186C871.775 757.268 872.13 745.29 872.624 731.154C873.161 716.858 873.57 706.639 873.806 700.532C873.964 696.432 874.121 692.325 874.279 688.211C874.311 687.159 874.332 685.194 874.343 682.297C874.418 679.227 874.504 676.898 874.623 675.223C871.936 692.912 868.724 717.716 865.211 749.154C862.181 779.722 860.397 799.622 859.516 809.518C859.119 812.523 857.174 814.133 853.693 814.315C846.172 814.687 838.666 815.042 831.173 815.378C828.423 815.507 826.736 813.865 826.124 810.43C823.208 789.4 820.3 768.359 817.399 747.308C816.583 740.868 815.691 734.181 814.703 727.29C813.768 720.378 812.64 712.564 811.318 703.827C809.997 695.133 808.987 688.736 808.342 684.583C809.094 717.072 809.857 741.78 810.588 758.696C810.982 767.518 811.39 776.334 811.813 785.142C812.403 796.906 812.908 805.739 813.306 811.653C813.177 813.843 812.78 814.938 812.103 814.97C810.119 815.049 808.134 815.127 806.15 815.206C803.669 815.292 800.037 815.496 795.234 815.764C790.443 816.022 786.822 816.204 784.329 816.29C782.073 816.365 780.859 815.56 780.719 813.843C775.311 743.512 769.689 673.706 763.851 604.427C763.765 603.611 763.808 602.871 763.937 602.28C764.13 601.561 764.42 600.971 764.839 600.552C765.28 600.005 765.72 599.586 766.15 599.253C766.569 598.899 767.117 598.609 767.815 598.363C768.482 598.041 769.04 597.804 769.481 597.654C769.932 597.397 770.48 597.203 771.189 597.042C771.877 596.796 772.328 596.635 772.532 596.559C775.447 595.493 778.381 594.413 781.332 593.318C795.739 587.694 806.129 583.776 812.253 581.941C818.517 579.998 823.33 578.238 826.672 576.703C828.584 589.722 831.356 609.396 834.762 636.036C836.99 656.601 839.11 677.341 841.122 698.257C845.019 652.927 848.887 607.45 852.726 561.827C852.726 561.827 852.952 561.848 853.424 561.805C853.886 561.762 854.241 561.687 854.477 561.558C860.709 558.199 870.099 552.768 882.874 544.943C896.121 536.421 906.479 529.52 913.645 524.722C918.709 521.251 923.827 517.699 928.998 514.064C930.954 513.023 931.706 515.867 931.222 522.618C920.801 649.421 914.279 720.84 913.033 735.523Z" fill="white"/>
</svg>
